<svg width="100%" height="100%" id="svg" viewBox="0 0 1440 400" xmlns="http://www.w3.org/2000/svg" class="transition duration-300 ease-in-out delay-150"><path d="M 0,400 C 0,400 0,80 0,80 C 78.71770334928232,81.78947368421052 157.43540669856463,83.57894736842105 266,77 C 374.56459330143537,70.42105263157895 512.9760765550238,55.473684210526315 617,58 C 721.0239234449762,60.526315789473685 790.6602870813398,80.52631578947368 865,84 C 939.3397129186602,87.47368421052632 1018.3827751196172,74.42105263157895 1115,71 C 1211.6172248803828,67.57894736842105 1325.8086124401914,73.78947368421052 1440,80 C 1440,80 1440,400 1440,400 Z" stroke="none" stroke-width="0" fill="#0077b644" class="transition-all duration-300 ease-in-out delay-150 path-0"></path><path d="M 0,400 C 0,400 0,160 0,160 C 92.6794258373206,161.1961722488038 185.3588516746412,162.39234449760764 286,167 C 386.6411483253588,171.60765550239236 495.244019138756,179.62679425837322 597,177 C 698.755980861244,174.37320574162678 793.6650717703347,161.10047846889955 897,162 C 1000.3349282296653,162.89952153110045 1112.0956937799044,177.9712918660287 1204,180 C 1295.9043062200956,182.0287081339713 1367.9521531100477,171.01435406698565 1440,160 C 1440,160 1440,400 1440,400 Z" stroke="none" stroke-width="0" fill="#0077b666" class="transition-all duration-300 ease-in-out delay-150 path-1"></path><path d="M 0,400 C 0,400 0,240 0,240 C 119.04306220095694,231.0334928229665 238.08612440191388,222.06698564593302 335,221 C 431.9138755980861,219.93301435406698 506.6985645933015,226.76555023923444 589,241 C 671.3014354066985,255.23444976076556 761.1196172248802,276.8708133971292 868,268 C 974.8803827751198,259.1291866028708 1098.8229665071772,219.75119617224883 1197,210 C 1295.1770334928228,200.24880382775117 1367.5885167464114,220.1244019138756 1440,240 C 1440,240 1440,400 1440,400 Z" stroke="none" stroke-width="0" fill="#0077b688" class="transition-all duration-300 ease-in-out delay-150 path-2"></path><path d="M 0,400 C 0,400 0,320 0,320 C 71.91387559808612,312.90909090909093 143.82775119617224,305.81818181818187 253,311 C 362.17224880382776,316.18181818181813 508.6028708133972,333.6363636363636 600,334 C 691.3971291866028,334.3636363636364 727.7607655502392,317.6363636363637 812,316 C 896.2392344497608,314.3636363636363 1028.354066985646,327.8181818181818 1141,331 C 1253.645933014354,334.1818181818182 1346.822966507177,327.0909090909091 1440,320 C 1440,320 1440,400 1440,400 Z" stroke="none" stroke-width="0" fill="#0077b6ff" class="transition-all duration-300 ease-in-out delay-150 path-3"></path></svg>