<svg id="visual" viewBox="0 0 900 600" width="900" height="600" xmlns="http://www.w3.org/2000/svg" xmlns:xlink="http://www.w3.org/1999/xlink" version="1.1"><rect x="0" y="0" width="900" height="600" fill="#f8f7ff"></rect><path d="M0 70L25 66.7C50 63.3 100 56.7 150 58.5C200 60.3 250 70.7 300 75C350 79.3 400 77.7 450 70.8C500 64 550 52 600 46.8C650 41.7 700 43.3 750 45.8C800 48.3 850 51.7 875 53.3L900 55L900 0L875 0C850 0 800 0 750 0C700 0 650 0 600 0C550 0 500 0 450 0C400 0 350 0 300 0C250 0 200 0 150 0C100 0 50 0 25 0L0 0Z" fill="#e2eafc" stroke-linecap="round" stroke-linejoin="miter"></path></svg>