<svg id="visual" viewBox="0 0 900 600" width="900" height="600" xmlns="http://www.w3.org/2000/svg" xmlns:xlink="http://www.w3.org/1999/xlink" version="1.1"><rect x="0" y="0" width="900" height="600" fill="#f8f7ff"></rect><path d="M0 53L25 52.5C50 52 100 51 150 49.3C200 47.7 250 45.3 300 46.5C350 47.7 400 52.3 450 55.2C500 58 550 59 600 56.5C650 54 700 48 750 48.8C800 49.7 850 57.3 875 61.2L900 65L900 0L875 0C850 0 800 0 750 0C700 0 650 0 600 0C550 0 500 0 450 0C400 0 350 0 300 0C250 0 200 0 150 0C100 0 50 0 25 0L0 0Z" fill="#caf0f8" stroke-linecap="round" stroke-linejoin="miter"></path></svg>