<svg id="visual" viewBox="0 0 960 540" width="960" height="540" xmlns="http://www.w3.org/2000/svg" xmlns:xlink="http://www.w3.org/1999/xlink" version="1.1"><rect x="0" y="0" width="960" height="540" fill="#caf0f8"></rect><path d="M0 50L22.8 47.7C45.7 45.3 91.3 40.7 137 43.7C182.7 46.7 228.3 57.3 274 62.7C319.7 68 365.3 68 411.2 63.7C457 59.3 503 50.7 548.8 50.2C594.7 49.7 640.3 57.3 686 62.3C731.7 67.3 777.3 69.7 823 69.7C868.7 69.7 914.3 67.3 937.2 66.2L960 65L960 0L937.2 0C914.3 0 868.7 0 823 0C777.3 0 731.7 0 686 0C640.3 0 594.7 0 548.8 0C503 0 457 0 411.2 0C365.3 0 319.7 0 274 0C228.3 0 182.7 0 137 0C91.3 0 45.7 0 22.8 0L0 0Z" fill="#f8f7ff" stroke-linecap="round" stroke-linejoin="miter"></path></svg>